<?xml version="1.0" encoding="iso-8859-1"?>
<!-- Generator: Adobe Illustrator 19.0.0, SVG Export Plug-In . SVG Version: 6.00 Build 0)  -->
<svg version="1.1" id="Capa_1" xmlns="http://www.w3.org/2000/svg" xmlns:xlink="http://www.w3.org/1999/xlink" x="0px" y="0px"
	 viewBox="0 0 511.236 511.236" style="enable-background:new 0 0 511.236 511.236;" xml:space="preserve">
<polygon style="fill:#DA4453;" points="190.945,286.398 179.65,275.103 117.52,280.752 106.225,292.047 145.761,331.586 "/>
<g style="opacity:0.3;">
	<polygon style="fill:#FFFFFF;" points="185.297,280.752 179.65,275.103 117.52,280.752 106.225,292.047 111.872,297.693 
		121.475,288.092 	"/>
</g>
<polygon style="fill:#DA4453;" points="224.833,320.291 236.132,331.586 230.485,393.717 219.186,405.011 179.65,365.471 "/>
<g style="opacity:0.2;">
	<polygon points="230.481,325.939 236.132,331.586 230.485,393.717 219.186,405.011 213.538,399.363 223.141,389.762 	"/>
</g>
<polygon style="fill:#ED5565;" points="230.481,303.349 236.132,308.996 168.355,376.773 134.466,342.881 202.243,275.103 
	207.891,280.752 "/>
<polygon style="fill:#E6E9ED;" points="353.786,180.049 359.432,185.697 236.132,308.996 230.481,303.349 207.891,280.752 
	202.243,275.103 325.54,151.812 331.188,157.459 "/>
<polygon style="fill:#ED5565;" points="353.786,180.049 359.432,185.697 308.598,236.532 302.95,230.884 280.36,208.286 
	274.714,202.639 325.54,151.812 331.188,157.459 "/>
<polygon style="fill:#E6E9ED;" points="450.76,94.37 359.432,185.697 353.786,180.049 331.188,157.459 325.54,151.812 
	416.875,60.478 "/>
<path style="fill:#ED5565;" d="M450.76,94.37l-33.885-33.892l16.942-16.942c28.237-28.237,73.425-39.54,73.425-39.54
	s-11.295,45.188-39.54,73.433L450.76,94.37z"/>
<g style="opacity:0.3;">
	<path style="fill:#FFFFFF;" d="M504.855,12.03c1.606-4.969,2.387-8.034,2.387-8.034s-45.188,11.303-73.425,39.54l-16.942,16.942
		l5.647,5.647l16.942-16.942C460.401,28.246,490.612,16.639,504.855,12.03z"/>
</g>
<g style="opacity:0.2;">
	<path d="M504.871,11.998c-4.61,14.251-16.233,44.493-37.169,65.43L450.76,94.37l-5.647-5.647l16.942-16.95
		c17.316-17.317,28.261-40.983,34.126-56.701L504.871,11.998z"/>
</g>
<polygon style="fill:#DA4453;" points="314.245,163.107 308.598,157.459 257.764,163.107 286.009,191.344 "/>
<g style="opacity:0.3;">
	<polygon style="fill:#FFFFFF;" points="308.598,157.459 257.764,163.107 263.411,168.754 301.539,164.519 	"/>
</g>
<polygon style="fill:#DA4453;" points="348.138,196.992 353.786,202.639 348.138,253.474 319.893,225.237 "/>
<g style="opacity:0.2;">
	<polygon points="353.786,202.639 348.138,253.474 342.483,247.826 346.726,209.699 	"/>
</g>
<g style="opacity:0.2;">
	
		<rect x="293.322" y="154.432" transform="matrix(-0.7072 -0.707 0.707 -0.7072 384.2774 507.9396)" width="7.987" height="39.934"/>
</g>
<g style="opacity:0.2;">
	
		<rect x="332.823" y="193.966" transform="matrix(-0.707 -0.7072 0.7072 -0.707 423.6495 603.3914)" width="7.986" height="39.944"/>
</g>
<g style="opacity:0.2;">
	<polygon points="185.297,371.127 179.65,365.471 224.833,320.291 230.481,325.939 	"/>
</g>
<g style="opacity:0.2;">
	<rect x="161.557" y="274.221" transform="matrix(-0.7072 -0.707 0.707 -0.7072 66.1626 639.744)" width="7.986" height="63.901"/>
</g>
<rect x="237.286" y="190.457" transform="matrix(-0.707 -0.7072 0.7072 -0.707 240.9355 583.2116)" style="fill:#FFFFFF;" width="7.986" height="102.479"/>
<g style="opacity:0.2;">
	
		<rect x="265.568" y="218.694" transform="matrix(-0.7072 -0.707 0.707 -0.7072 269.3525 651.4149)" width="7.987" height="102.479"/>
</g>
<rect x="370.058" y="44.367" transform="matrix(-0.7072 -0.707 0.707 -0.7072 561.5535 450.4601)" style="fill:#FFFFFF;" width="7.987" height="129.169"/>
<g style="opacity:0.2;">
	
		<rect x="398.257" y="72.631" transform="matrix(-0.707 -0.7072 0.7072 -0.707 589.6078 518.6924)" width="7.986" height="129.159"/>
</g>
<g style="opacity:0.3;">
	
		<rect x="298.941" y="144.109" transform="matrix(-0.707 -0.7072 0.7072 -0.707 389.7794 521.5817)" style="fill:#FFFFFF;" width="7.986" height="71.879"/>
</g>
<g style="opacity:0.2;">
	<rect x="327.219" y="172.34" transform="matrix(-0.7072 -0.707 0.707 -0.7072 418.1894 589.7567)" width="7.987" height="71.891"/>
</g>
<g style="opacity:0.3;">
	
		<rect x="167.176" y="263.883" transform="matrix(-0.707 -0.7072 0.7072 -0.707 71.6747 653.3091)" style="fill:#FFFFFF;" width="7.987" height="95.849"/>
</g>
<g style="opacity:0.2;">
	
		<rect x="195.451" y="292.142" transform="matrix(-0.7072 -0.707 0.707 -0.7072 100.0633 721.5715)" width="7.986" height="95.849"/>
</g>
<g>
	<path style="fill:#3A3847;" d="M134.466,346.875c-1.021,0-2.043-0.39-2.823-1.17c-1.561-1.561-1.561-4.088,0-5.647l299.35-299.346
		c1.561-1.56,4.088-1.56,5.648,0c1.56,1.561,1.56,4.088,0,5.647L137.29,345.705C136.51,346.485,135.488,346.875,134.466,346.875z"/>
	<path style="fill:#3A3847;" d="M168.355,380.767c-1.021,0-2.043-0.39-2.823-1.17c-1.561-1.561-1.561-4.088,0-5.647L464.878,74.604
		c1.561-1.56,4.088-1.56,5.648,0c1.56,1.561,1.56,4.088,0,5.647L171.179,379.597C170.399,380.378,169.377,380.767,168.355,380.767z"
		/>
	<path style="fill:#3A3847;" d="M467.702,81.421c-1.021,0-2.044-0.39-2.824-1.17c-1.56-1.56-1.56-4.087,0-5.647
		c27.146-27.145,38.378-71.139,38.487-71.576c0.53-2.145,2.699-3.439,4.844-2.909c2.138,0.538,3.44,2.707,2.902,4.844
		c-0.468,1.888-11.888,46.592-40.585,75.289C469.746,81.032,468.723,81.421,467.702,81.421z"/>
	<path style="fill:#3A3847;" d="M433.817,47.529c-1.021,0-2.044-0.39-2.824-1.17c-1.56-1.56-1.56-4.087,0-5.647
		c28.69-28.689,73.387-40.117,75.273-40.593c2.146-0.515,4.314,0.765,4.845,2.909c0.538,2.138-0.765,4.306-2.902,4.844
		c-0.437,0.109-44.47,11.389-71.567,38.487C435.861,47.139,434.839,47.529,433.817,47.529z"/>
	<path style="fill:#3A3847;" d="M450.76,98.364c-1.022,0-2.044-0.39-2.823-1.17l-33.885-33.893c-1.561-1.56-1.561-4.087,0-5.647
		c1.56-1.56,4.087-1.56,5.646,0l33.885,33.893c1.561,1.561,1.561,4.088,0,5.647C452.804,97.974,451.781,98.364,450.76,98.364z"/>
	<path style="fill:#3A3847;" d="M168.355,380.767c-1.021,0-2.043-0.39-2.823-1.17l-33.889-33.893c-1.561-1.561-1.561-4.088,0-5.647
		c1.56-1.56,4.087-1.56,5.647,0l33.889,33.893c1.56,1.56,1.56,4.087,0,5.647C170.399,380.378,169.377,380.767,168.355,380.767z"/>
	<path style="fill:#3A3847;" d="M185.297,284.745c-1.021,0-2.043-0.39-2.823-1.17l-5.647-5.647c-1.561-1.561-1.561-4.088,0-5.647
		c1.56-1.56,4.087-1.56,5.647,0l5.647,5.647c1.56,1.561,1.56,4.088,0,5.647C187.341,284.355,186.319,284.745,185.297,284.745z"/>
	<path style="fill:#3A3847;" d="M117.516,284.745c-2.043,0-3.783-1.56-3.974-3.635c-0.199-2.192,1.419-4.134,3.616-4.337
		l62.13-5.647c2.25-0.133,4.138,1.419,4.341,3.619c0.199,2.192-1.42,4.134-3.616,4.337l-62.129,5.647
		C117.758,284.737,117.637,284.745,117.516,284.745z"/>
	<path style="fill:#3A3847;" d="M106.225,296.04c-1.021,0-2.043-0.39-2.823-1.17c-1.561-1.56-1.561-4.087,0-5.647l11.295-11.295
		c1.56-1.561,4.087-1.561,5.647,0c1.56,1.561,1.56,4.088,0,5.647l-11.295,11.295C108.269,295.65,107.247,296.04,106.225,296.04z"/>
	<path style="fill:#3A3847;" d="M140.114,329.932c-1.021,0-2.043-0.39-2.823-1.17l-33.889-33.893c-1.561-1.56-1.561-4.087,0-5.647
		c1.56-1.561,4.087-1.561,5.647,0l33.889,33.893c1.56,1.561,1.56,4.088,0,5.647C142.158,329.543,141.136,329.932,140.114,329.932z"
		/>
	<path style="fill:#3A3847;" d="M236.132,335.58c-1.021,0-2.043-0.39-2.824-1.17l-5.651-5.647c-1.561-1.56-1.561-4.087,0-5.647
		c1.56-1.561,4.087-1.561,5.647,0l5.651,5.647c1.56,1.56,1.56,4.087,0,5.647C238.176,335.19,237.154,335.58,236.132,335.58z"/>
	<path style="fill:#3A3847;" d="M230.489,397.71c-0.121,0-0.242-0.008-0.366-0.016c-2.196-0.203-3.814-2.146-3.616-4.337
		l5.647-62.13c0.203-2.2,2.09-3.76,4.341-3.619c2.196,0.202,3.814,2.145,3.616,4.337l-5.647,62.13
		C234.272,396.15,232.533,397.71,230.489,397.71z"/>
	<path style="fill:#3A3847;" d="M219.186,409.005c-1.021,0-2.043-0.39-2.823-1.17c-1.561-1.561-1.561-4.087,0-5.647l11.299-11.295
		c1.56-1.561,4.087-1.561,5.647,0s1.56,4.087,0,5.647l-11.298,11.295C221.23,408.615,220.208,409.005,219.186,409.005z"/>
	<path style="fill:#3A3847;" d="M219.186,409.005c-1.021,0-2.043-0.39-2.823-1.17l-33.889-33.885c-1.561-1.56-1.561-4.087,0-5.647
		c1.56-1.561,4.087-1.561,5.647,0l33.889,33.885c1.56,1.561,1.56,4.087,0,5.647C221.23,408.615,220.208,409.005,219.186,409.005z"/>
	<path style="fill:#3A3847;" d="M162.707,352.522c-1.021,0-2.043-0.39-2.823-1.17c-1.561-1.56-1.561-4.087,0-5.647l45.184-45.18
		c1.56-1.561,4.087-1.561,5.647,0s1.56,4.088,0,5.647l-45.184,45.18C164.751,352.133,163.729,352.522,162.707,352.522z"/>
	<path style="fill:#3A3847;" d="M236.132,312.99c-1.021,0-2.043-0.39-2.824-1.17l-33.888-33.893c-1.561-1.561-1.561-4.088,0-5.647
		c1.56-1.56,4.087-1.56,5.647,0l33.888,33.893c1.56,1.56,1.56,4.087,0,5.647C238.176,312.6,237.154,312.99,236.132,312.99z"/>
	<path style="fill:#3A3847;" d="M348.138,257.467c-0.147,0-0.296-0.008-0.444-0.022c-2.191-0.242-3.768-2.215-3.525-4.415
		l5.647-50.835c0.242-2.185,2.285-3.713,4.407-3.526c2.191,0.242,3.775,2.216,3.533,4.415l-5.648,50.834
		C351.882,255.954,350.15,257.467,348.138,257.467z"/>
	<path style="fill:#3A3847;" d="M348.138,257.467c-1.021,0-2.043-0.39-2.823-1.169l-22.598-22.589c-1.56-1.56-1.56-4.087,0-5.647
		s4.087-1.56,5.647,0l22.598,22.59c1.561,1.56,1.561,4.087,0,5.647C350.181,257.077,349.16,257.467,348.138,257.467z"/>
	<path style="fill:#3A3847;" d="M257.76,167.101c-2.009,0-3.741-1.514-3.967-3.55c-0.242-2.199,1.338-4.173,3.53-4.415l50.839-5.647
		c2.208-0.218,4.166,1.349,4.407,3.526c0.242,2.199-1.333,4.173-3.525,4.415l-50.839,5.647
		C258.056,167.093,257.903,167.101,257.76,167.101z"/>
	<path style="fill:#3A3847;" d="M280.36,189.691c-1.021,0-2.043-0.391-2.823-1.17l-22.598-22.59c-1.56-1.56-1.56-4.087,0-5.647
		c1.561-1.56,4.087-1.56,5.648,0l22.598,22.59c1.561,1.56,1.561,4.087,0,5.647C282.404,189.3,281.383,189.691,280.36,189.691z"/>
	<path style="fill:#3A3847;" d="M302.95,212.281c-1.021,0-2.043-0.391-2.823-1.17c-1.56-1.56-1.56-4.087,0-5.647l28.237-28.237
		c1.561-1.56,4.088-1.56,5.647,0s1.56,4.087,0,5.647l-28.237,28.237C304.994,211.89,303.972,212.281,302.95,212.281z"/>
	<path style="fill:#3A3847;" d="M359.432,189.691c-1.021,0-2.043-0.391-2.823-1.17l-33.893-33.885c-1.56-1.56-1.56-4.087,0-5.647
		s4.087-1.56,5.647,0l33.893,33.885c1.561,1.56,1.561,4.087,0,5.647C361.476,189.3,360.455,189.691,359.432,189.691z"/>
	<path style="fill:#3A3847;" d="M308.598,240.525c-1.022,0-2.044-0.39-2.824-1.17l-33.885-33.893c-1.561-1.56-1.561-4.087,0-5.647
		s4.088-1.56,5.647,0l33.885,33.893c1.56,1.56,1.56,4.087,0,5.647C310.641,240.135,309.62,240.525,308.598,240.525z"/>
	<path style="fill:#3A3847;" d="M3.997,511.236c-1.021,0-2.043-0.39-2.823-1.17c-1.561-1.561-1.561-4.088,0-5.647l113.468-113.472
		c1.56-1.561,4.087-1.561,5.647,0c1.56,1.56,1.56,4.087,0,5.647L6.822,510.066C6.041,510.847,5.019,511.236,3.997,511.236z"/>
	<path style="fill:#3A3847;" d="M83.07,466.049c-1.021,0-2.043-0.39-2.823-1.17c-1.561-1.561-1.561-4.088,0-5.647l73.932-73.932
		c1.56-1.561,4.087-1.561,5.647,0c1.56,1.56,1.56,4.087,0,5.647l-73.932,73.932C85.114,465.659,84.092,466.049,83.07,466.049z"/>
	<path style="fill:#3A3847;" d="M128.76,386.47c-1.021,0-2.043-0.39-2.823-1.17c-1.561-1.561-1.561-4.088,0-5.647l11.299-11.295
		c1.56-1.561,4.087-1.561,5.647,0c1.56,1.56,1.56,4.087,0,5.647L131.584,385.3C130.804,386.08,129.783,386.47,128.76,386.47z"/>
	<path style="fill:#3A3847;" d="M60.987,488.132c-1.021,0-2.043-0.39-2.823-1.17c-1.561-1.561-1.561-4.088,0-5.647l11.295-11.295
		c1.56-1.561,4.087-1.561,5.647,0c1.56,1.56,1.56,4.087,0,5.647l-11.295,11.295C63.031,487.742,62.009,488.132,60.987,488.132z"/>
	<path style="fill:#3A3847;" d="M49.181,432.156c-1.021,0-2.043-0.39-2.823-1.17c-1.561-1.561-1.561-4.088,0-5.647l73.932-73.932
		c1.56-1.561,4.087-1.561,5.647,0c1.56,1.56,1.56,4.087,0,5.647l-73.932,73.932C51.225,431.766,50.203,432.156,49.181,432.156z"/>
	<path style="fill:#3A3847;" d="M27.098,454.247c-1.022,0-2.043-0.39-2.824-1.17c-1.56-1.561-1.56-4.088,0-5.647l11.295-11.295
		c1.56-1.561,4.087-1.561,5.647,0c1.56,1.56,1.56,4.087,0,5.647l-11.295,11.295C29.142,453.857,28.12,454.247,27.098,454.247z"/>
</g>
<g>
</g>
<g>
</g>
<g>
</g>
<g>
</g>
<g>
</g>
<g>
</g>
<g>
</g>
<g>
</g>
<g>
</g>
<g>
</g>
<g>
</g>
<g>
</g>
<g>
</g>
<g>
</g>
<g>
</g>
</svg>
